PathFileType	4	(X/Y/Z)	D:\TRACE\v60_Jaco2_6-2-23\JustArmDRS_Motion1_4-platform.trc
DataRate	CameraRate	NumFrames	NumMarkers	Units	OrigDataRate	OrigDataStartFrame	OrigNumFrames
100.00	100.00	      62	5	mm	100.00	1	      6812
Frame#	Time	Left_Front			Right_Front			Left_Aft			Right_Aft			Post			
		X1	Y1	Z1	X2	Y2	Z2	X3	Y3	Z3	X4	Y4	Z4	X5	Y5	Z5	

1	0.000	-800.73181	8.82354	-638.82971	769.20880	10.15922	-644.45190	-708.75995	7.86415	496.08978	733.07056	7.02412	505.99460	-14.28822	1308.15491	-961.97107	
2	0.010	-800.70667	8.80073	-638.76746	769.23999	10.19208	-644.38287	-708.75067	7.85674	496.10104	733.05701	7.01339	506.01260	-14.27920	1308.15601	-961.94861	
3	0.020	-800.76465	8.78734	-638.74524	769.25049	10.14542	-644.40112	-708.79382	7.85551	496.08719	733.00049	6.98064	506.03284	-14.29246	1308.12598	-961.94055	
4	0.030	-800.74719	8.74301	-638.78790	769.27856	10.16830	-644.38281	-708.72137	7.81395	496.07556	732.97760	6.98757	506.02652	-14.27968	1308.10376	-961.95923	
5	0.040	-800.76617	8.79098	-638.77087	769.28125	10.10838	-644.37305	-708.70447	7.80127	496.15604	732.99884	6.97293	506.03589	-14.23060	1308.11157	-961.93494	
6	0.050	-800.77582	8.80730	-638.80347	769.29443	10.15285	-644.37317	-708.73834	7.86426	496.08456	733.01605	6.99045	506.01010	-14.22425	1308.10107	-961.91028	
7	0.060	-800.76825	8.80887	-638.73364	769.18372	10.15582	-644.40948	-708.77612	7.85368	496.13663	733.02850	6.99180	506.01053	-14.27474	1308.12280	-961.94922	
8	0.070	-800.79272	8.80615	-638.74054	769.25360	10.14860	-644.37122	-708.72961	7.81088	496.09888	732.97534	6.98678	506.03726	-14.19365	1308.05334	-961.93781	
9	0.080	-800.76331	8.76893	-638.71564	769.26160	10.09483	-644.36029	-708.77643	7.83166	496.13205	732.95612	6.98059	506.03131	-14.20329	1308.07324	-961.93250	
10	0.090	-800.76508	8.76764	-638.80298	769.25415	10.13556	-644.40802	-708.74396	7.84491	496.06476	732.98364	6.98585	506.03561	-14.21635	1308.07642	-961.94482	
11	0.100	-800.70697	8.82273	-638.80988	769.20599	10.14129	-644.36835	-708.75739	7.88509	496.10919	733.05933	6.99997	506.00439	-14.24128	1308.12842	-961.93469	
12	0.110	-800.69971	8.84224	-638.82538	769.32202	10.17132	-644.33325	-708.77118	7.84520	496.07959	733.34906	6.97392	505.87048	-14.23453	1308.14758	-961.93707	
13	0.120	-800.71661	8.83595	-638.82886	769.30902	10.17544	-644.41211	-708.74030	7.83893	496.07684	733.05518	7.00608	505.99744	-14.19507	1308.14465	-961.95343	
14	0.130	-800.77588	8.74080	-638.85870	769.26294	10.15783	-644.39465	-708.74139	7.81025	496.11203	733.00403	6.99959	506.02023	-14.23624	1308.11243	-961.92236	
15	0.140	-800.74994	8.77601	-638.72882	769.22400	10.17894	-644.41113	-708.76489	7.85039	496.11069	733.04193	7.00975	505.99832	-14.34188	1308.14001	-961.93219	
16	0.150	-800.70605	8.82220	-638.84491	769.26349	10.19902	-644.36694	-708.74371	7.83560	496.09525	733.03906	7.02379	506.02106	-14.19612	1308.13062	-961.91321	
17	0.160	-800.70233	8.79201	-638.83264	769.23645	10.16078	-644.40845	-708.76215	7.87500	496.09253	733.00464	7.02371	506.01651	-14.29525	1308.16882	-961.93390	
18	0.170	-800.68011	8.85166	-638.79413	769.21521	10.16484	-644.42340	-708.74823	7.85345	496.13940	733.06287	6.99330	506.00681	-14.31373	1308.16565	-961.98224	
19	0.180	-800.72650	8.78183	-638.84357	769.31018	10.13156	-644.39679	-708.74640	7.80764	496.15320	733.03839	7.00695	506.02710	-14.25596	1308.12329	-961.98010	
20	0.190	-800.73975	8.81555	-638.77460	769.19904	10.13348	-644.41748	-708.74127	7.81287	496.10400	732.98138	7.00509	506.03635	-14.35314	1308.13208	-961.92017	
21	0.200	-800.79327	8.81942	-638.74139	769.22412	10.16064	-644.42267	-708.67627	7.75054	496.15515	733.02155	7.01151	506.02548	-14.22495	1308.10510	-961.94025	
22	0.210	-800.73895	8.82459	-638.84076	769.28510	10.17388	-644.40472	-708.68988	7.80941	496.09482	733.04437	6.99073	506.01016	-14.22184	1308.13867	-961.94263	
23	0.220	-800.76056	8.83046	-638.76202	769.23224	10.16463	-644.39355	-708.79114	7.87368	496.09283	733.03223	6.99846	506.01678	-14.27371	1308.12952	-961.93695	
24	0.230	-800.73041	8.82435	-638.81274	769.25201	10.17229	-644.37897	-708.75446	7.83336	496.10159	733.33539	6.95563	505.86945	-14.18738	1308.11230	-961.94153	
25	0.240	-800.75604	8.73913	-638.78516	769.29907	10.15617	-644.34277	-708.73004	7.81772	496.14600	732.99127	6.96258	506.03488	-14.24008	1308.10095	-961.91223	
26	0.250	-800.77802	8.76757	-638.80847	769.25928	10.10183	-644.41510	-708.73596	7.81041	496.10959	732.94989	6.98230	506.03760	-14.24885	1308.10095	-961.93896	
27	0.260	-800.74292	8.79958	-638.80310	769.31775	10.12348	-644.39435	-708.72827	7.82440	496.12143	733.07684	6.99140	506.00522	-14.26071	1308.13757	-961.99207	
28	0.270	-800.72803	8.83873	-638.83423	769.26123	10.13280	-644.38312	-708.72980	7.87898	496.07584	733.08258	6.97808	505.99170	-14.23797	1308.13367	-961.91571	
29	0.280	-800.68445	8.78644	-638.87506	769.26154	10.16226	-644.39258	-708.73541	7.84624	496.10654	733.04443	7.01915	505.98352	-14.34330	1308.13440	-961.93622	
30	0.290	-800.75146	8.84342	-638.78827	769.24396	10.17867	-644.38635	-708.72485	7.81649	496.14441	732.98798	6.97979	506.02084	-14.28329	1308.14905	-961.94281	
31	0.300	-800.75244	8.80004	-638.80206	769.23895	10.14528	-644.37408	-708.78339	7.81264	496.08716	732.99121	6.96180	506.01801	-14.29971	1308.14600	-961.92902	
32	0.310	-800.73029	8.80263	-638.82709	769.26331	10.15464	-644.37732	-708.79730	7.86630	496.06995	733.00031	6.98840	506.02368	-14.37687	1308.17139	-961.95331	
33	0.320	-800.68762	8.82007	-638.83838	769.23218	10.17465	-644.38055	-708.77057	7.85544	496.10138	733.09589	7.01031	505.99805	-14.29536	1308.18079	-961.93182	
34	0.330	-800.68201	8.84151	-638.83838	769.22406	10.20922	-644.42889	-708.75342	7.84431	496.10721	733.06403	7.01306	506.01111	-14.29924	1308.19739	-961.93549	
35	0.340	-800.70660	8.78104	-638.83923	769.30450	10.14199	-644.40631	-708.77057	7.87374	496.05515	733.03864	7.01960	506.03802	-14.32410	1308.17810	-961.95404	
36	0.350	-800.72723	8.80477	-638.78656	769.26617	10.14279	-644.37848	-708.69916	7.82408	496.13486	733.06561	6.99340	505.98749	-14.31446	1308.15381	-961.91943	
37	0.360	-800.74341	8.79433	-638.78973	769.30737	10.13994	-644.40741	-708.76642	7.86503	496.12952	733.05670	7.02862	506.00903	-14.34056	1308.19250	-961.93115	
38	0.370	-800.71204	8.83632	-638.81073	769.29260	10.15296	-644.39868	-708.76434	7.83285	496.11203	733.04028	7.01044	506.01328	-14.31461	1308.18164	-961.88617	
39	0.380	-800.69128	8.86554	-638.84174	769.23480	10.20435	-644.39600	-708.75769	7.87038	496.12683	733.06812	7.00299	505.99063	-14.27708	1308.15918	-961.94226	
40	0.390	-800.74310	8.80145	-638.85059	769.28833	10.18809	-644.32965	-708.74823	7.83444	496.11221	733.05621	7.00494	506.00500	-14.26812	1308.17114	-961.96899	
41	0.400	-800.77448	8.77644	-638.75854	769.23682	10.10708	-644.39044	-708.69958	7.79350	496.10223	733.00684	7.02032	506.01834	-14.31908	1308.13513	-961.92084	
42	0.410	-800.79877	8.79504	-638.81329	769.23352	10.10989	-644.36890	-708.73267	7.83723	496.12546	732.96338	6.98853	506.02643	-14.27828	1308.06897	-961.92944	
43	0.420	-800.74652	8.73739	-638.80829	769.31390	10.11787	-644.35187	-708.73212	7.80891	496.13931	732.99316	6.97740	506.03128	-14.20665	1308.07825	-961.92554	
44	0.430	-800.72723	8.81082	-638.80182	769.25165	10.13943	-644.37073	-708.72949	7.82670	496.11514	733.03973	7.00268	506.01523	-14.22980	1308.10730	-961.96362	
45	0.440	-800.70996	8.75883	-638.83624	769.30182	10.13382	-644.38507	-708.72363	7.82422	496.12592	733.03180	6.98790	506.01312	-14.28769	1308.15308	-961.93219	
46	0.450	-800.73285	8.80824	-638.77936	769.24969	10.17618	-644.40619	-708.74207	7.84188	496.10971	733.05371	7.01206	506.01187	-14.21136	1308.14563	-961.94702	
47	0.460	-800.74017	8.76434	-638.78503	769.24573	10.15739	-644.35754	-708.76379	7.83026	496.09656	733.03168	6.99883	506.01224	-14.22231	1308.11121	-961.95862	
48	0.470	-800.74005	8.75299	-638.82666	769.28009	10.12398	-644.37897	-708.76923	7.84197	496.09561	732.97949	6.98449	506.01553	-14.29205	1308.15173	-961.91266	
49	0.480	-800.74377	8.80645	-638.74493	769.24707	10.17765	-644.41980	-708.74933	7.84324	496.10229	733.03058	6.98480	506.00827	-14.29402	1308.12378	-961.95911	
50	0.490	-800.72034	8.86135	-638.78510	769.21918	10.16261	-644.43182	-708.77594	7.86421	496.05499	733.05243	7.03995	506.02621	-14.26146	1308.16162	-961.94568	
51	0.500	-800.71271	8.78094	-638.83325	769.31458	10.13675	-644.38843	-708.77533	7.85417	496.09882	733.06818	7.03333	505.97513	-14.27404	1308.18079	-961.90326	
52	0.510	-800.72369	8.82964	-638.78522	769.27399	10.17660	-644.40857	-708.73438	7.82069	496.10062	733.05884	7.03089	505.99774	-14.29782	1308.17615	-961.90814	
53	0.520	-800.74457	8.79559	-638.76965	769.23706	10.12220	-644.38470	-708.76465	7.82912	496.10312	732.97784	6.98116	506.01416	-14.30279	1308.15784	-961.93982	
54	0.530	-800.74530	8.76906	-638.79114	769.21136	10.14889	-644.40906	-708.76349	7.84276	496.10568	733.00543	6.99556	506.02600	-14.25706	1308.13855	-961.90692	
55	0.540	-800.73181	8.78548	-638.78699	769.22614	10.15234	-644.38959	-708.75568	7.82772	496.13477	733.04950	7.00240	505.98639	-14.29741	1308.15063	-961.96985	
56	0.550	-800.74902	8.81486	-638.76990	769.27899	10.14068	-644.41553	-708.73956	7.83637	496.09036	733.02600	7.00707	506.01190	-14.29883	1308.16650	-961.93512	
57	0.560	-800.73926	8.78329	-638.82605	769.24707	10.13040	-644.37366	-708.76611	7.84053	496.10751	733.01923	7.01161	506.00116	-14.26436	1308.14734	-961.95099	
58	0.570	-800.74750	8.77432	-638.79706	769.24207	10.15944	-644.40198	-708.74329	7.81929	496.15451	732.97650	7.01063	506.02322	-14.24968	1308.13049	-961.88202	
59	0.580	-800.78577	8.79963	-638.75555	769.23145	10.15312	-644.38190	-708.71436	7.83474	496.12079	732.96710	6.96418	506.05020	-14.23321	1308.10693	-961.94183	
60	0.590	-800.74719	8.85792	-638.77875	769.26495	10.11724	-644.34491	-708.70111	7.83268	496.10797	733.04102	7.00460	506.02188	-14.24547	1308.13953	-961.93207	
61	0.600	-800.72614	8.78751	-638.85785	769.26758	10.14652	-644.35834	-708.74628	7.84865	496.13782	733.05487	7.01189	506.01447	-14.22950	1308.11853	-961.90240	
62	0.610	-800.75769	8.79685	-638.87091	769.22375	10.15608	-644.39856	-708.74280	7.84473	496.13345	733.04309	6.97122	506.04208	-14.21713	1308.12488	-961.90991	
